<svg xmlns="http://www.w3.org/2000/svg" viewBox="0 0 254.04 90.485"><g data-name="Layer 2"><g data-name="ART"><path fill="#70b1de" d="M13.934 7.212l4.987 63.581L36.03 83.87l61.884-3.482 18.382-48.826-11.273-24.35H13.934z"/><path d="M35.657 85.083l-17.88-13.667-5.13-65.395h93.136l11.802 25.493-18.83 50.018zM20.065 70.17l16.338 12.487 60.67-3.414 17.934-47.634L104.26 8.402h-89.04z" fill="#3e4147"/><path fill="#70b1de" d="M149.697 7.362l-11.274 24.35 18.382 48.826 61.884 3.482 17.11-13.077 4.986-63.581h-91.088z"/><path d="M219.062 85.233l-63.097-3.55-18.83-50.019 11.801-25.493h93.136l-5.129 65.395zm-61.416-5.84l60.67 3.415 16.338-12.488 4.844-61.768h-89.04L139.713 31.76z" fill="#3e4147"/><path d="M252.31 14.32l-2.754-8.969a5.452 5.452 0 00-5.212-3.851h-96.528a5.452 5.452 0 00-5.275 4.073l-.248.949-3.988.797a54.09 54.09 0 01-21.459-.048l-5.18-1.061-.167-.637a5.452 5.452 0 00-5.275-4.073H9.696A5.452 5.452 0 004.484 5.35L1.73 14.32c-1 3.26 1.406 6.19 4.764 8.223l2.837 2.125 4.819 34.9a34.076 34.076 0 0034.435 29.41l35.4-.706a25.36 25.36 0 0023.86-18.325l10.49-36.354c.022-.08.033-.16.053-.24h17.264c.02.08.03.16.054.24l10.488 36.354a25.36 25.36 0 0023.86 18.325l35.4.706a34.076 34.076 0 0034.436-29.41l4.819-34.9 2.837-2.125c3.358-2.034 5.765-4.963 4.764-8.223zM109.682 37.59l-6 23.107c-3.607 13.528-11.445 19.013-21.195 19.151l-37.83.538c-9.102.13-18.848-8.24-21.554-22.52L19.947 39.83c-4.66-28.108 7.306-29.03 20.727-28.814l49.465-.02c12.272.198 21.523 12.786 19.543 26.596zm124.411 2.239l-3.156 18.037c-2.706 14.28-12.453 22.65-21.554 22.52l-37.83-.538c-9.75-.138-17.588-5.623-21.196-19.15l-6-23.107c-1.979-13.81 7.271-26.398 19.544-26.595l49.465.02c13.42-.217 25.387.705 20.727 28.813z" fill="#357fc1"/><path d="M206.144 90.484c-.24 0-.478-.002-.72-.006l-35.4-.707a26.736 26.736 0 01-25.271-19.409l-10.244-35.508H119.53l-10.244 35.508a26.736 26.736 0 01-25.272 19.41l-35.4.706a35.582 35.582 0 01-35.952-30.705L7.93 25.494l-2.278-1.707C1.157 21.04-.795 17.433.297 13.88L3.05 4.91A6.917 6.917 0 019.696 0h96.528a6.956 6.956 0 016.65 4.927l4.273.874a52.294 52.294 0 0020.864.048l3.079-.656A6.956 6.956 0 01147.816 0h96.528a6.916 6.916 0 016.645 4.911l2.754 8.968c1.092 3.554-.86 7.161-5.356 9.908l-2.278 1.707-4.732 34.28a35.587 35.587 0 01-35.233 30.71zm-87.757-58.63h17.265a1.5 1.5 0 011.457 1.144l.035.158 10.491 36.374a23.75 23.75 0 0022.45 17.241l35.4.707q.33.007.658.006a32.582 32.582 0 0032.261-28.12l4.818-34.9a1.505 1.505 0 01.587-.995l2.837-2.126c.04-.03.08-.058.122-.083 1.547-.938 5.045-3.448 4.108-6.5l-2.754-8.968A3.933 3.933 0 00244.344 3h-96.528a3.955 3.955 0 00-3.824 2.952l-.248.948a1.498 1.498 0 01-1.157 1.092l-3.989.798a55.286 55.286 0 01-22.052-.05l-5.181-1.06a1.501 1.501 0 01-1.15-1.09l-.167-.638A3.954 3.954 0 00106.224 3H9.696a3.933 3.933 0 00-3.778 2.792L3.164 14.76c-.938 3.053 2.56 5.562 4.107 6.5.042.025.083.053.122.083l2.837 2.126a1.505 1.505 0 01.587.995l4.819 34.9a32.584 32.584 0 0032.26 28.12c.22 0 .438-.002.658-.006l35.4-.706a23.75 23.75 0 0022.45-17.242l10.488-36.353.038-.179a1.5 1.5 0 011.457-1.144zm91.194 50.034l-.219-.001-37.831-.538c-7.885-.113-18.21-3.72-22.623-20.265l-6.003-23.116a1.567 1.567 0 01-.032-.164 26.31 26.31 0 015.776-20.859 20.347 20.347 0 0115.228-7.449l49.49.02c7.598-.126 14.836.186 19.219 5.27 4.108 4.767 5.057 12.802 2.987 25.288l-.002.014-3.157 18.037c-2.965 15.653-13.687 23.763-22.833 23.763zm-63.75-44.592l5.978 23.024c3.152 11.819 9.802 17.887 19.765 18.029l37.831.538h.182c7.902 0 17.218-7.275 19.876-21.3l3.151-18.008c1.887-11.38 1.134-18.85-2.3-22.834-3.54-4.106-9.76-4.348-16.924-4.23l-49.49-.019a17.371 17.371 0 00-12.968 6.397 23.301 23.301 0 00-5.101 18.403zm88.263 2.533zM44.459 81.888c-9.146 0-19.866-8.109-22.83-23.742l-3.16-18.058c-2.072-12.5-1.122-20.535 2.985-25.3 4.382-5.086 11.605-5.392 19.245-5.272l49.438-.02a20.355 20.355 0 0115.254 7.45 26.307 26.307 0 015.776 20.858 1.524 1.524 0 01-.032.164l-6 23.106C100.72 77.63 90.393 81.236 82.509 81.35l-37.831.538h-.22zm-6.055-69.393c-6.219 0-11.517.582-14.678 4.25-3.434 3.985-4.186 11.456-2.3 22.839l3.155 18.023c2.654 14.004 11.97 21.28 19.872 21.28h.182l37.83-.538c9.963-.142 16.614-6.21 19.768-18.038l5.976-23.015a23.301 23.301 0 00-5.1-18.403 17.387 17.387 0 00-12.995-6.397l-49.438.02c-.769-.013-1.528-.02-2.272-.02zm71.278 25.096z" fill="#3e4147"/><ellipse cx="75.754" cy="36.76" rx="25.478" ry="18.037" fill="#85c3e9"/><ellipse cx="201.113" cy="36.76" rx="25.478" ry="18.037" fill="#85c3e9"/></g></g></svg>
